<svg xmlns="http://www.w3.org/2000/svg" xmlns:xlink="http://www.w3.org/1999/xlink" width="500" zoomAndPan="magnify" viewBox="0 0 375 374.999991" height="500" preserveAspectRatio="xMidYMid meet" version="1.0"><defs><g/><clipPath id="9f8f3cdcfc"><path d="M 127.398438 121 L 185 121 L 185 184.410156 L 127.398438 184.410156 Z M 127.398438 121 " clip-rule="nonzero"/></clipPath><clipPath id="9039bf5789"><path d="M 141 103.410156 L 171 103.410156 L 171 122 L 141 122 Z M 141 103.410156 " clip-rule="nonzero"/></clipPath><clipPath id="c668b747a9"><path d="M 190 121 L 247.398438 121 L 247.398438 184.410156 L 190 184.410156 Z M 190 121 " clip-rule="nonzero"/></clipPath><clipPath id="f9e66ff98a"><path d="M 204 103.410156 L 233 103.410156 L 233 122 L 204 122 Z M 204 103.410156 " clip-rule="nonzero"/></clipPath></defs><g clip-path="url(#9f8f3cdcfc)"><path fill="#72bcd4" d="M 160.410156 143.304688 C 161.644531 142.964844 162.925781 143.683594 163.269531 144.917969 C 166.035156 154.894531 174.707031 162.101562 184.855469 163.164062 L 184.855469 128.699219 C 184.855469 124.785156 181.6875 121.609375 177.769531 121.609375 L 134.472656 121.609375 C 130.558594 121.609375 127.382812 124.785156 127.382812 128.699219 L 127.382812 177.113281 C 127.382812 181.027344 130.558594 184.199219 134.472656 184.199219 L 177.769531 184.199219 C 181.6875 184.199219 184.855469 181.027344 184.855469 177.113281 L 184.855469 167.832031 C 172.625 166.75 162.117188 158.136719 158.792969 146.160156 C 158.453125 144.925781 159.171875 143.648438 160.410156 143.304688 Z M 174.140625 140.464844 C 175.886719 140.464844 177.296875 141.890625 177.296875 143.652344 C 177.296875 145.414062 175.886719 146.84375 174.140625 146.84375 C 172.398438 146.84375 170.980469 145.414062 170.980469 143.652344 C 170.980469 141.890625 172.398438 140.464844 174.140625 140.464844 Z M 174.140625 140.464844 " fill-opacity="1" fill-rule="nonzero"/></g><g clip-path="url(#9039bf5789)"><path fill="#72bcd4" d="M 170.257812 121.609375 L 165.617188 121.609375 L 165.617188 117.585938 C 165.617188 112.351562 161.359375 108.09375 156.125 108.09375 C 150.890625 108.09375 146.628906 112.351562 146.628906 117.585938 L 146.628906 121.609375 L 141.992188 121.609375 L 141.992188 117.585938 C 141.992188 109.789062 148.335938 103.453125 156.125 103.453125 C 163.914062 103.453125 170.261719 109.796875 170.261719 117.585938 L 170.261719 121.609375 Z M 170.257812 121.609375 " fill-opacity="1" fill-rule="nonzero"/></g><g clip-path="url(#c668b747a9)"><path fill="#72bcd4" d="M 240.472656 121.609375 L 197.171875 121.609375 C 193.257812 121.609375 190.085938 124.785156 190.085938 128.699219 L 190.085938 163.167969 C 200.234375 162.105469 208.90625 154.894531 211.683594 144.917969 C 212.023438 143.683594 213.300781 142.960938 214.535156 143.304688 C 215.769531 143.648438 216.496094 144.925781 216.15625 146.160156 C 212.828125 158.136719 202.316406 166.753906 190.085938 167.832031 L 190.085938 177.113281 C 190.085938 181.027344 193.257812 184.199219 197.171875 184.199219 L 240.472656 184.199219 C 244.386719 184.199219 247.5625 181.027344 247.5625 177.113281 L 247.5625 128.699219 C 247.5625 124.785156 244.386719 121.609375 240.472656 121.609375 Z M 200.804688 146.84375 C 199.058594 146.84375 197.644531 145.414062 197.644531 143.652344 C 197.644531 141.890625 199.058594 140.464844 200.804688 140.464844 C 202.550781 140.464844 203.96875 141.890625 203.96875 143.652344 C 203.96875 145.414062 202.550781 146.84375 200.804688 146.84375 Z M 200.804688 146.84375 " fill-opacity="1" fill-rule="nonzero"/></g><g clip-path="url(#f9e66ff98a)"><path fill="#72bcd4" d="M 232.960938 121.609375 L 228.324219 121.609375 L 228.324219 117.585938 C 228.324219 112.351562 224.0625 108.09375 218.828125 108.09375 C 213.59375 108.09375 209.335938 112.351562 209.335938 117.585938 L 209.335938 121.609375 L 204.695312 121.609375 L 204.695312 117.585938 C 204.695312 109.789062 211.039062 103.453125 218.828125 103.453125 C 226.625 103.453125 232.964844 109.796875 232.964844 117.585938 L 232.964844 121.609375 Z M 232.960938 121.609375 " fill-opacity="1" fill-rule="nonzero"/></g><g fill="#ffffff" fill-opacity="1"><g transform="translate(119.813273, 235.891333)"><g><path d="M 17.671875 -13.609375 C 19.160156 -13.328125 20.382812 -12.578125 21.34375 -11.359375 C 22.3125 -10.140625 22.796875 -8.75 22.796875 -7.1875 C 22.796875 -5.757812 22.445312 -4.507812 21.75 -3.4375 C 21.050781 -2.363281 20.046875 -1.519531 18.734375 -0.90625 C 17.421875 -0.300781 15.863281 0 14.0625 0 L 2.625 0 L 2.625 -26.53125 L 13.5625 -26.53125 C 15.363281 -26.53125 16.914062 -26.238281 18.21875 -25.65625 C 19.519531 -25.070312 20.503906 -24.257812 21.171875 -23.21875 C 21.847656 -22.175781 22.1875 -21 22.1875 -19.6875 C 22.1875 -18.132812 21.773438 -16.835938 20.953125 -15.796875 C 20.128906 -14.765625 19.035156 -14.035156 17.671875 -13.609375 Z M 7.9375 -15.578125 L 12.8125 -15.578125 C 14.070312 -15.578125 15.046875 -15.863281 15.734375 -16.4375 C 16.421875 -17.007812 16.765625 -17.828125 16.765625 -18.890625 C 16.765625 -19.953125 16.421875 -20.773438 15.734375 -21.359375 C 15.046875 -21.941406 14.070312 -22.234375 12.8125 -22.234375 L 7.9375 -22.234375 Z M 13.296875 -4.328125 C 14.585938 -4.328125 15.59375 -4.628906 16.3125 -5.234375 C 17.039062 -5.847656 17.40625 -6.710938 17.40625 -7.828125 C 17.40625 -8.960938 17.023438 -9.851562 16.265625 -10.5 C 15.503906 -11.144531 14.476562 -11.46875 13.1875 -11.46875 L 7.9375 -11.46875 L 7.9375 -4.328125 Z M 13.296875 -4.328125 "/></g></g></g><g fill="#ffffff" fill-opacity="1"><g transform="translate(146.14227, 235.891333)"><g><path d="M 16.296875 0 L 10.453125 -10.34375 L 7.9375 -10.34375 L 7.9375 0 L 2.625 0 L 2.625 -26.53125 L 12.578125 -26.53125 C 14.628906 -26.53125 16.375 -26.164062 17.8125 -25.4375 C 19.257812 -24.71875 20.34375 -23.742188 21.0625 -22.515625 C 21.789062 -21.285156 22.15625 -19.910156 22.15625 -18.390625 C 22.15625 -16.640625 21.644531 -15.0625 20.625 -13.65625 C 19.613281 -12.25 18.109375 -11.28125 16.109375 -10.75 L 22.453125 0 Z M 7.9375 -14.328125 L 12.390625 -14.328125 C 13.828125 -14.328125 14.898438 -14.675781 15.609375 -15.375 C 16.328125 -16.070312 16.6875 -17.039062 16.6875 -18.28125 C 16.6875 -19.5 16.328125 -20.441406 15.609375 -21.109375 C 14.898438 -21.773438 13.828125 -22.109375 12.390625 -22.109375 L 7.9375 -22.109375 Z M 7.9375 -14.328125 "/></g></g></g><g fill="#ffffff" fill-opacity="1"><g transform="translate(172.395289, 235.891333)"><g><path d="M 18.890625 -5.046875 L 8.328125 -5.046875 L 6.578125 0 L 0.984375 0 L 10.53125 -26.5625 L 16.71875 -26.5625 L 26.265625 0 L 20.640625 0 Z M 17.4375 -9.3125 L 13.609375 -20.40625 L 9.765625 -9.3125 Z M 17.4375 -9.3125 "/></g></g></g><g fill="#ffffff" fill-opacity="1"><g transform="translate(201.497727, 235.891333)"><g><path d="M 8.0625 -4.484375 L 19.984375 -4.484375 L 19.984375 0 L 1.90625 0 L 1.90625 -4.109375 L 13.75 -22.046875 L 1.90625 -22.046875 L 1.90625 -26.53125 L 19.984375 -26.53125 L 19.984375 -22.421875 Z M 8.0625 -4.484375 "/></g></g></g><g fill="#ffffff" fill-opacity="1"><g transform="translate(225.281249, 235.891333)"><g><path d="M 7.9375 -26.53125 L 7.9375 0 L 2.625 0 L 2.625 -26.53125 Z M 7.9375 -26.53125 "/></g></g></g><g fill="#ffffff" fill-opacity="1"><g transform="translate(237.743086, 235.891333)"><g><path d="M 7.9375 -4.21875 L 16.6875 -4.21875 L 16.6875 0 L 2.625 0 L 2.625 -26.53125 L 7.9375 -26.53125 Z M 7.9375 -4.21875 "/></g></g></g><g fill="#72bcd4" fill-opacity="1"><g transform="translate(106.523442, 266.091311)"><g><path d="M 3.359375 -12.453125 L 3.359375 -7.796875 L 8.4375 -7.796875 L 8.4375 -6.296875 L 3.359375 -6.296875 L 3.359375 -1.5 L 9.046875 -1.5 L 9.046875 0 L 1.546875 0 L 1.546875 -13.953125 L 9.046875 -13.953125 L 9.046875 -12.453125 Z M 3.359375 -12.453125 "/></g></g></g><g fill="#72bcd4" fill-opacity="1"><g transform="translate(119.77941, 266.091311)"><g><path d="M 9.140625 -8.09375 L 9.140625 -6.5625 L 1.15625 -6.5625 L 1.15625 -8.09375 Z M 9.140625 -8.09375 "/></g></g></g><g fill="#72bcd4" fill-opacity="1"><g transform="translate(133.795083, 266.091311)"><g><path d="M 0.859375 -6.984375 C 0.859375 -8.335938 1.164062 -9.554688 1.78125 -10.640625 C 2.394531 -11.734375 3.226562 -12.585938 4.28125 -13.203125 C 5.34375 -13.816406 6.519531 -14.125 7.8125 -14.125 C 9.332031 -14.125 10.660156 -13.753906 11.796875 -13.015625 C 12.929688 -12.285156 13.757812 -11.25 14.28125 -9.90625 L 12.09375 -9.90625 C 11.707031 -10.738281 11.148438 -11.378906 10.421875 -11.828125 C 9.703125 -12.285156 8.832031 -12.515625 7.8125 -12.515625 C 6.84375 -12.515625 5.972656 -12.285156 5.203125 -11.828125 C 4.429688 -11.378906 3.820312 -10.738281 3.375 -9.90625 C 2.9375 -9.070312 2.71875 -8.097656 2.71875 -6.984375 C 2.71875 -5.867188 2.9375 -4.894531 3.375 -4.0625 C 3.820312 -3.226562 4.429688 -2.582031 5.203125 -2.125 C 5.972656 -1.675781 6.84375 -1.453125 7.8125 -1.453125 C 8.832031 -1.453125 9.703125 -1.675781 10.421875 -2.125 C 11.148438 -2.570312 11.707031 -3.21875 12.09375 -4.0625 L 14.28125 -4.0625 C 13.757812 -2.726562 12.929688 -1.695312 11.796875 -0.96875 C 10.660156 -0.238281 9.332031 0.125 7.8125 0.125 C 6.519531 0.125 5.34375 -0.175781 4.28125 -0.78125 C 3.226562 -1.394531 2.394531 -2.238281 1.78125 -3.3125 C 1.164062 -4.394531 0.859375 -5.617188 0.859375 -6.984375 Z M 0.859375 -6.984375 "/></g></g></g><g fill="#72bcd4" fill-opacity="1"><g transform="translate(152.22901, 266.091311)"><g><path d="M 7.859375 0.140625 C 6.566406 0.140625 5.382812 -0.160156 4.3125 -0.765625 C 3.25 -1.378906 2.40625 -2.226562 1.78125 -3.3125 C 1.164062 -4.394531 0.859375 -5.617188 0.859375 -6.984375 C 0.859375 -8.335938 1.164062 -9.554688 1.78125 -10.640625 C 2.40625 -11.734375 3.25 -12.582031 4.3125 -13.1875 C 5.382812 -13.789062 6.566406 -14.09375 7.859375 -14.09375 C 9.160156 -14.09375 10.34375 -13.789062 11.40625 -13.1875 C 12.476562 -12.582031 13.320312 -11.738281 13.9375 -10.65625 C 14.550781 -9.582031 14.859375 -8.359375 14.859375 -6.984375 C 14.859375 -5.609375 14.550781 -4.378906 13.9375 -3.296875 C 13.320312 -2.222656 12.476562 -1.378906 11.40625 -0.765625 C 10.34375 -0.160156 9.160156 0.140625 7.859375 0.140625 Z M 7.859375 -1.4375 C 8.828125 -1.4375 9.703125 -1.660156 10.484375 -2.109375 C 11.265625 -2.566406 11.878906 -3.210938 12.328125 -4.046875 C 12.773438 -4.890625 13 -5.867188 13 -6.984375 C 13 -8.097656 12.773438 -9.070312 12.328125 -9.90625 C 11.878906 -10.738281 11.269531 -11.378906 10.5 -11.828125 C 9.726562 -12.285156 8.847656 -12.515625 7.859375 -12.515625 C 6.867188 -12.515625 5.988281 -12.285156 5.21875 -11.828125 C 4.445312 -11.378906 3.835938 -10.738281 3.390625 -9.90625 C 2.941406 -9.070312 2.71875 -8.097656 2.71875 -6.984375 C 2.71875 -5.867188 2.941406 -4.890625 3.390625 -4.046875 C 3.835938 -3.210938 4.453125 -2.566406 5.234375 -2.109375 C 6.015625 -1.660156 6.890625 -1.4375 7.859375 -1.4375 Z M 7.859375 -1.4375 "/></g></g></g><g fill="#72bcd4" fill-opacity="1"><g transform="translate(170.942826, 266.091311)"><g><path d="M 15.6875 -13.84375 L 15.6875 0 L 13.859375 0 L 13.859375 -10.3125 L 9.265625 0 L 7.984375 0 L 3.359375 -10.34375 L 3.359375 0 L 1.546875 0 L 1.546875 -13.84375 L 3.5 -13.84375 L 8.625 -2.40625 L 13.734375 -13.84375 Z M 15.6875 -13.84375 "/></g></g></g><g fill="#72bcd4" fill-opacity="1"><g transform="translate(191.156043, 266.091311)"><g><path d="M 15.6875 -13.84375 L 15.6875 0 L 13.859375 0 L 13.859375 -10.3125 L 9.265625 0 L 7.984375 0 L 3.359375 -10.34375 L 3.359375 0 L 1.546875 0 L 1.546875 -13.84375 L 3.5 -13.84375 L 8.625 -2.40625 L 13.734375 -13.84375 Z M 15.6875 -13.84375 "/></g></g></g><g fill="#72bcd4" fill-opacity="1"><g transform="translate(211.36926, 266.091311)"><g><path d="M 3.359375 -12.453125 L 3.359375 -7.796875 L 8.4375 -7.796875 L 8.4375 -6.296875 L 3.359375 -6.296875 L 3.359375 -1.5 L 9.046875 -1.5 L 9.046875 0 L 1.546875 0 L 1.546875 -13.953125 L 9.046875 -13.953125 L 9.046875 -12.453125 Z M 3.359375 -12.453125 "/></g></g></g><g fill="#72bcd4" fill-opacity="1"><g transform="translate(224.625226, 266.091311)"><g><path d="M 8.875 0 L 5.5625 -5.703125 L 3.359375 -5.703125 L 3.359375 0 L 1.546875 0 L 1.546875 -13.9375 L 6.046875 -13.9375 C 7.097656 -13.9375 7.984375 -13.753906 8.703125 -13.390625 C 9.429688 -13.035156 9.972656 -12.550781 10.328125 -11.9375 C 10.691406 -11.320312 10.875 -10.625 10.875 -9.84375 C 10.875 -8.882812 10.597656 -8.035156 10.046875 -7.296875 C 9.492188 -6.566406 8.664062 -6.082031 7.5625 -5.84375 L 11.0625 0 Z M 3.359375 -7.15625 L 6.046875 -7.15625 C 7.023438 -7.15625 7.757812 -7.398438 8.25 -7.890625 C 8.75 -8.378906 9 -9.03125 9 -9.84375 C 9 -10.664062 8.753906 -11.300781 8.265625 -11.75 C 7.785156 -12.207031 7.046875 -12.4375 6.046875 -12.4375 L 3.359375 -12.4375 Z M 3.359375 -7.15625 "/></g></g></g><g fill="#72bcd4" fill-opacity="1"><g transform="translate(239.780441, 266.091311)"><g><path d="M 0.859375 -6.984375 C 0.859375 -8.335938 1.164062 -9.554688 1.78125 -10.640625 C 2.394531 -11.734375 3.226562 -12.585938 4.28125 -13.203125 C 5.34375 -13.816406 6.519531 -14.125 7.8125 -14.125 C 9.332031 -14.125 10.660156 -13.753906 11.796875 -13.015625 C 12.929688 -12.285156 13.757812 -11.25 14.28125 -9.90625 L 12.09375 -9.90625 C 11.707031 -10.738281 11.148438 -11.378906 10.421875 -11.828125 C 9.703125 -12.285156 8.832031 -12.515625 7.8125 -12.515625 C 6.84375 -12.515625 5.972656 -12.285156 5.203125 -11.828125 C 4.429688 -11.378906 3.820312 -10.738281 3.375 -9.90625 C 2.9375 -9.070312 2.71875 -8.097656 2.71875 -6.984375 C 2.71875 -5.867188 2.9375 -4.894531 3.375 -4.0625 C 3.820312 -3.226562 4.429688 -2.582031 5.203125 -2.125 C 5.972656 -1.675781 6.84375 -1.453125 7.8125 -1.453125 C 8.832031 -1.453125 9.703125 -1.675781 10.421875 -2.125 C 11.148438 -2.570312 11.707031 -3.21875 12.09375 -4.0625 L 14.28125 -4.0625 C 13.757812 -2.726562 12.929688 -1.695312 11.796875 -0.96875 C 10.660156 -0.238281 9.332031 0.125 7.8125 0.125 C 6.519531 0.125 5.34375 -0.175781 4.28125 -0.78125 C 3.226562 -1.394531 2.394531 -2.238281 1.78125 -3.3125 C 1.164062 -4.394531 0.859375 -5.617188 0.859375 -6.984375 Z M 0.859375 -6.984375 "/></g></g></g><g fill="#72bcd4" fill-opacity="1"><g transform="translate(258.214366, 266.091311)"><g><path d="M 3.359375 -12.453125 L 3.359375 -7.796875 L 8.4375 -7.796875 L 8.4375 -6.296875 L 3.359375 -6.296875 L 3.359375 -1.5 L 9.046875 -1.5 L 9.046875 0 L 1.546875 0 L 1.546875 -13.953125 L 9.046875 -13.953125 L 9.046875 -12.453125 Z M 3.359375 -12.453125 "/></g></g></g></svg>